<?xml version="1.0" encoding="UTF-8"?>
<svg id="Layer_2" data-name="Layer 2" xmlns="http://www.w3.org/2000/svg" viewBox="0 0 118.93 96.84">
  <defs>
    <style>
      .cls-1 {
        stroke-width: 0px;
        color: white;
      }
    </style>
  </defs>
  <g id="Layer_1-2" data-name="Layer 1">
    <path class="cls-1" fill="currentColor" d="M117.61,46.26c.41.05.74.24,1,.58.26.33.36.71.31,1.11,0,.05-.1.77-.31,2.15-.21,1.38-.53,3.22-.96,5.5-.44,2.28-1,4.84-1.69,7.69-.69,2.84-1.5,5.75-2.42,8.72-1.13,3.54-2.33,6.7-3.61,9.49-1.28,2.79-2.61,5.21-4,7.26-2.41,3.43-5.02,5.77-7.84,7l-.08.08c-1.49.67-3.07,1-4.77,1-1.95,0-3.56-.49-4.84-1.46-1.18-.87-2.1-2.13-2.77-3.77-.62-1.44-1.06-3.05-1.35-4.84-.28-1.79-.55-3.66-.81-5.61-.31-2.61-.72-5.3-1.23-8.07-.51-2.77-1.44-5.25-2.77-7.46-2.92-4.82-8.12-7.23-15.61-7.23-.41,0-.77-.15-1.08-.46-.31-.31-.46-.67-.46-1.08s.15-.77.46-1.08.67-.46,1.08-.46c1.13,0,2.28-.08,3.46-.23,3.54-1.54,6.71-3.72,9.53-6.53,2.82-2.82,5.18-5.93,7.07-9.34,1.9-3.41,3.29-6.92,4.19-10.53.9-3.61,1.19-7.01.88-10.19-.36-3.74-1.35-6.51-2.96-8.3-1.61-1.79-3.55-2.75-5.8-2.88-2.26-.13-4.69.5-7.3,1.88-2.61,1.38-5.07,3.38-7.38,6-2.31,2.67-4.54,5.86-6.69,9.57-2.15,3.72-4.18,7.96-6.07,12.72-1.49,3.59-2.79,7.19-3.92,10.8-1.13,3.61-2.09,6.96-2.88,10.03-.8,3.07-1.42,5.73-1.88,7.96-.46,2.23-.8,3.75-1,4.57-.36,1.54-1.1,2.46-2.22,2.77-1.12.31-2.29.31-3.51,0-1.22-.31-2.3-.78-3.24-1.42s-1.41-1.17-1.41-1.58c0-.05-.05-.77-.15-2.15-.1-1.38-.23-3.24-.38-5.57-.15-2.33-.32-5.02-.5-8.07-.18-3.05-.32-6.27-.42-9.65-.1-3.64-.17-7.02-.19-10.15-.02-2.02,0-3.94.03-5.77.03-1.42-1.34-2.44-2.69-2h-.03c-.95.32-1.88.6-2.81.85-3.02.92-5.89,1.87-8.61,2.84-2.72.97-5.15,2.15-7.3,3.54-2.31,1.49-3.98,3.16-5.03,5.03-1.05,1.87-1.58,4.04-1.58,6.5,0,.41-.15.77-.46,1.08-.31.31-.67.46-1.08.46s-.77-.15-1.08-.46c-.31-.31-.46-.67-.46-1.08,0-5.94,2.66-10.66,7.99-14.14,2.31-1.49,4.92-2.74,7.84-3.77,2.92-1.02,5.87-2,8.84-2.92,1.13-.36,2.25-.7,3.38-1.04h.03c1.94-.58,3.33-2.28,3.51-4.29.42-4.82,1.02-8.5,1.82-11.04.86-2.51,2.14-4.54,3.82-6.07,1.68-1.43,3.46-2.31,5.35-2.61,1.59-.26,3.08-.14,4.46.35,1.36.48,2.47,1.24,3.34,2.29.03.04.06.07.08.11.24.35.5.79.77,1.33.28.56.47,1.24.58,2.04.1.8.08,1.72-.08,2.77-.15,1.05-.51,2.22-1.08,3.5-.87,2-2.04,3.73-3.5,5.19-.29.29-.59.58-.9.86-2.65,2.39-4.34,5.67-4.43,9.24-.03.99-.04,1.99-.05,3.02-.03,3.28,0,6.57.08,9.88.08,3.31.19,6.52.35,9.65v.09c.08,1.55,2.26,1.82,2.7.33.23-.78.47-1.57.72-2.38,1.2-3.92,2.63-7.93,4.27-12.03,4.05-9.84,8.51-17.55,13.38-23.14,1.08-1.23,2.43-2.49,4.07-3.77,1.64-1.28,3.42-2.43,5.34-3.46,1.92-1.02,3.93-1.87,6.03-2.54,2.1-.67,4.19-.99,6.27-.96,2.08.03,4.06.46,5.96,1.31,1.9.85,3.61,2.24,5.15,4.19,2.61,3.13,3.87,7.23,3.77,12.3,0,4.2-.85,8.46-2.54,12.76-1.74,4.51-4.13,8.58-7.15,12.22-3.28,3.95-7.05,7.05-11.3,9.3-.41.26-.8.46-1.15.61-.36.15-.74.33-1.15.54,1.23.21,2.38.46,3.46.77s2.1.72,3.07,1.23c1.38.72,2.64,1.6,3.77,2.65,1.13,1.05,2.1,2.27,2.92,3.65.82,1.33,1.43,2.92,1.85,4.77.41,1.84.7,3.78.88,5.8.18,2.02.32,4.02.42,6,.1,1.97.28,3.78.54,5.42.26,1.64.65,3,1.19,4.07.54,1.08,1.32,1.72,2.34,1.92,1.02.2,2.18-.37,3.46-1.73,1.28-1.36,2.56-3.1,3.84-5.23,1.28-2.13,2.48-4.46,3.61-7,1.13-2.54,2.02-4.86,2.69-6.96.92-2.92,1.72-5.78,2.38-8.57.67-2.79,1.2-5.29,1.61-7.5.41-2.2.72-3.98.92-5.34.2-1.36.31-2.06.31-2.11.1-.41.32-.74.65-1,.33-.26.7-.36,1.11-.31ZM47.89,11.28c.77-1.69,1.1-3.07,1-4.15-.1-1.08-.41-1.73-.92-1.96-.51-.23-1.15.01-1.92.73-.77.72-1.46,2-2.08,3.84-.36,1.03-.65,2.2-.88,3.54-.01.09-.03.17-.04.26-.25,1.49,1.62,2.37,2.62,1.24h0c.92-1.05,1.66-2.22,2.23-3.5Z"/>
  </g>
</svg>